<?xml version="1.0" encoding="utf-8"?>
<!-- Generator: Adobe Illustrator 21.1.0, SVG Export Plug-In . SVG Version: 6.00 Build 0)  -->
<svg version="1.1" id="Layer_1" xmlns="http://www.w3.org/2000/svg" xmlns:xlink="http://www.w3.org/1999/xlink" x="0px" y="0px"
	 viewBox="0 0 660 227.3" style="enable-background:new 0 0 660 227.3;" xml:space="preserve">
<style type="text/css">
	.st0{fill:#94D600;}
	.st1{fill:#55C1E9;}
</style>
<rect x="581.8" y="71" class="st0" width="42.7" height="77.1"/>
<rect x="512" y="28.7" class="st1" width="70.1" height="42.7"/>
<rect x="581.8" y="28.7" width="42.7" height="42.7"/>
<g>
	<path d="M513.2,131.1v-15.3h-26.6v75.8h26.6V168c0-17.5,7.8-25.5,21.7-25.5h2.2v-28C524.5,114,517.5,120.7,513.2,131.1z"/>
	<path d="M71,93.5H34.7v98h35.8c33.9,0,53.7-21,53.7-49.3V142C124.1,113.7,104.6,93.5,71,93.5z M97.3,142.7
		c0,15.8-10.4,24.8-26,24.8H60.8v-49.9h10.6c15.6,0,26,9.1,26,24.8V142.7z"/>
	<path d="M169.4,114.2c-24.1,0-41.6,18-41.6,39.6v0.3c0,21.5,17.3,39.3,41.3,39.3c24.1,0,41.6-18,41.6-39.6v-0.3
		C210.8,132,193.4,114.2,169.4,114.2z M185.1,154.1c0,9.1-6.1,16.8-15.7,16.8c-9.3,0-16-7.8-16-17.1v-0.3c0-9.1,6.1-16.8,15.7-16.8
		c9.3,0,16,7.8,16,17.1V154.1z"/>
	<path d="M373.5,114.1c-10.8,0-17.8,6-22.7,12.3v-10.6l-52.7,0l-10.2,38.4l-11.8-38.7h-22l-11.6,38.4l-9.9-38.1h-26.1l23.1,76.3
		h22.8l12.6-39.4l12.3,39.4h23l16.6-54.1h7.3v53.5h26.6v-41c0-8.3,4.8-12.7,11.2-12.7c6.3,0,10.6,4.5,10.6,12.7v41h26.6V142
		C399.3,124.8,389.6,114.1,373.5,114.1z"/>
	<path d="M442.6,114.1c-22.4,0-38.2,17.5-38.2,39.6v0.3c0,23.5,16.8,39.4,40.6,39.4c15.1,0,25.6-6.2,32.9-15.4l-14.7-12.2
		c-5.5,5.3-10.5,7.7-16.8,7.7c-8.3,0-14.3-4.2-16.4-12.5h50.7c0.1-1.8,0.1-3.8,0.1-5.5C480.8,133.3,468.8,114.1,442.6,114.1z
		 M429.6,147.4c1.4-8.3,6.2-13.7,13.2-13.7c7.3,0,12.2,5.3,13.2,13.7H429.6z"/>
</g>
</svg>
